<?xml version="1.0" standalone="yes"?>
<svg xmlns="http://www.w3.org/2000/svg" width="256" height="256">
<path style="fill:#5251b7; stroke:none;" d="M0 0L0 67C18.3768 64.6268 41.6444 61.292 59 54.8696C67.0635 51.8857 73.2642 46.2389 82 44.4498C97.4602 41.2836 114.279 43 130 43L130 42L128 42L128 41C142.862 40.877 157.488 36.0154 172 33.3102C188.887 30.1624 206.117 29.1557 223 25.8002C233.01 23.8107 251.439 15.3792 255 29L256 29L254 21L256 22L256 0L0 0z"/>
<path style="fill:#f55750; stroke:none;" d="M230 1L231 2L230 1z"/>
<path style="fill:#21c5fb; stroke:none;" d="M17 2L18 3L17 2z"/>
<path style="fill:#af3ca4; stroke:none;" d="M17 5L18 6L17 5M238 5L239 6L238 5z"/>
<path style="fill:#21c5fb; stroke:none;" d="M14 6L15 7L14 6M241 6L242 7L241 6M6 14L7 15L6 14M2 17L3 18L2 17z"/>
<path style="fill:#af3ca4; stroke:none;" d="M5 17L6 18L5 17M253 17L255 19L253 17M249 18L250 19L249 18M128 41L128 42C155.138 48.4611 182.959 35.8774 202.841 63.0008C205.948 67.2396 208.681 72.0374 210.453 77C212.69 83.2631 213 89.4322 213 96L214 96L214 86L230 91L256 112L256 45C256 38.5131 257.973 26.0891 251.722 21.6929C245.676 17.4405 226 25.0773 219 26.3889C203.089 29.3701 186.896 30.3471 171 33.3102C156.815 35.9544 142.513 40.7005 128 41M253 20L254 21L253 20M255 20L256 21L255 20M254 21L255 25L256 25L254 21z"/>
<path style="fill:#f55750; stroke:none;" d="M1 25L2 26L1 25z"/>
<path style="fill:#af3ca4; stroke:none;" d="M87 43L88 44L87 43z"/>
<path style="fill:#fed3a5; stroke:none;" d="M26 252L22 251L22 252C40.9277 258.157 61.2627 256 81 256L180 256L175.302 230L169 214L158 214C173.638 209.378 187.177 211.53 199.561 197.91C218.865 176.678 213 143.438 213 117C213 104.889 214.252 91.8481 211.24 80C208.588 69.5679 203.073 61.2528 195 54.1852C182.451 43.1985 165.728 43 150 43C118.435 43 75.8907 34.6424 53.3287 62C39.3098 78.9987 43 104.549 43 125C43 144.352 39.7643 166.776 47.4645 185C48.6886 187.897 52.8935 192.333 52.2701 195.576C51.3359 200.436 43.1372 205.959 40.1559 210C31.7844 221.346 24.4128 237.548 26 252z"/>
<path style="fill:#f55750; stroke:none;" d="M167 43L168 44L167 43M178 45L179 46L178 45z"/>
<path style="fill:#af3ca4; stroke:none;" d="M74 46L75 47L74 46z"/>
<path style="fill:#f55750; stroke:none;" d="M181 46L182 47L181 46z"/>
<path style="fill:#af3ca4; stroke:none;" d="M64 51L65 52L64 51M61 53L62 54L61 53M60 54L61 55L60 54M0 67L0 118C11.3361 114.968 26.2631 106.229 38 108L42 105L42 110L43 110C43 87.7296 45.3196 74.0531 59 56L40 58.6003L0 67M59 55L60 56L59 55z"/>
<path style="fill:#f55750; stroke:none;" d="M197 56L198 57L197 56M57 57L58 58L57 57M198 57L199 58L198 57M199 58L200 59L199 58z"/>
<path style="fill:#af3ca4; stroke:none;" d="M59 106L60 106L60 101L98 94L96 97C115.311 84.9764 130.625 80.0648 152 91L163 87L166 91C154.384 67.8904 192.616 67.8904 181 91C186.141 87.2986 189.755 87 196 87L196 92C201.329 78.3467 184.746 62.7705 173 59.7608C164.617 57.6128 154.611 59 146 59C124.068 59 84.9246 51.2621 68.0934 68.0934C57.6598 78.5269 59 92.459 59 106z"/>
<path style="fill:#f55750; stroke:none;" d="M200 59L201 60L200 59M80 60L81 61L80 60M175 60L176 61L175 60M184 65L185 66L184 65M190 71L191 72L190 71M169 72L170 73L169 72z"/>
<path style="fill:#fed3a5; stroke:none;" d="M170.004 72.7431C157.444 77.5417 164.634 96.9802 176.996 92.2569C189.556 87.4583 182.366 68.0198 170.004 72.7431z"/>
<path style="fill:#f55750; stroke:none;" d="M177 72L178 73L177 72M46 74L47 75L46 74M166 74L167 75L166 74M180 74L181 75L180 74M192 74L193 75L192 74M209 74L210 75L209 74M165 75L166 76L165 75M181 75L182 76L181 75M193 76L194 77L193 76M210.333 76.6667L210.667 77.3333L210.333 76.6667M45 77L46 78L45 77M163 78L164 79L163 78M172 78L173 79L172 78z"/>
<path style="fill:#af3ca4; stroke:none;" d="M173.103 79.1759C169.193 79.7216 169.86 86.0265 173.946 85.534C178.256 85.0144 177.236 78.5992 173.103 79.1759z"/>
<path style="fill:#f55750; stroke:none;" d="M174 78L175 79L174 78M183 78L184 79L183 78M194 78L195 79L194 78M170 79L171 80L170 79M176 79L177 80L176 79M60 80L61 81L60 80M195.333 80.6667L195.667 81.3333L195.333 80.6667M211 80L212 81L211 80M169 81L169 84L170 84L169 81M177 81L178 82L177 81M177 83L178 84L177 83M59 84L60 85L59 84M122 84L122 85L125 85L122 84z"/>
<path style="fill:#fed3a5; stroke:none;" d="M125 84.429C115.507 85.6089 106.285 88.7339 99.0039 95.1852C68.0493 122.611 91.2213 177.153 133 171.711C154.722 168.881 171.821 150.166 171.821 128C171.821 104.051 149.632 81.3675 125 84.429z"/>
<path style="fill:#f55750; stroke:none;" d="M131 84L131 85L134 85L131 84M196 84L196 87L197 87L196 84M212 84L212 89L213 89L212 84M117 85L118 86L117 85M138 85L139 86L138 85M170 85L171 86L170 85M176 85L177 86L176 85M43 86L43 89L44 89L43 86M114 86L115 87L114 86M141.667 86.3333L142.333 86.6667L141.667 86.3333M163 86L164 87L163 86M172 86L172 87L175 87L172 86M183 86L184 87L183 86M214 86C213.993 96.9906 213 107.957 213 119C213 152.416 219.084 198.452 178 210.792C171.377 212.781 164.85 213 158 213L158 214L169 214L175.302 231L180 256C198.364 256 217.215 257.754 235 253L235 254L231 255L231 256L236 256L235 254L236 254L241 253L240 251L241 250C246.363 249.881 249.881 246.363 250 241L253 241L253 240L250 240L252 235L253 235L253 239L254 239L254 235L256 236L256 233L254 235L253 235C259.128 208.51 256 179.221 256 152C256 140.336 258.769 124.643 255.531 113.424C253.652 106.913 236.633 92.196 230 91L214 86M111 87L112 88L111 87M144 87L145 88L144 87M151 89C158.766 102.789 170.722 109.316 171.625 127C174.229 178.005 97.4183 187.369 85.6759 138C81.3893 119.977 90.9987 109.324 98 94L60 101C58.4538 120.593 59 140.321 59 160C59 167.959 59.1196 179.125 66.213 184.577C71.146 188.369 88.4683 179.802 95 179.17C107.342 177.975 120.607 179.993 132 184.873C139.022 187.88 145.394 193.988 153 195L153 196L139 196L139 197C154.298 197 171.961 199.942 184.996 190.236C196.917 181.359 197 168.45 197 155C197 132.351 197.78 109.553 196 87C185.05 87 171.2 98.2975 163 87L151 89M109 88L110 89L109 88M146.667 88.3333L147.333 88.6667L146.667 88.3333M150 88L151 89L150 88M164 88L165 89L164 88M182 88L183 89L182 88M107 89L108 90L107 89M148.667 89.3333L149.333 89.6667L148.667 89.3333M165 89L166 90L165 89M181 89L182 90L181 89M105 90L106 91L105 90M150 90L151 91L150 90M103 91L104 92L103 91M102 92L103 93L102 92M235 93L237 95L235 93M99 94L100 95L99 94M98 95L99 96L98 95M97 96L98 97L97 96M242 99L246 103L242 99M121 100.519C85.3103 108.261 99.3611 163.5 135 155.319C170.649 147.136 156.708 92.7717 121 100.519M41 105L38 108C29.5301 105.883 17.1682 112.159 9 114.836C6.21553 115.749 2.00134 116.467 0.603395 119.394C-3.03482 127.011 0 142.573 0 151C0 177.627 -3.38236 206.909 2 233L1 233L1 231L0 231L0 236L2 235L2 236C2.00608 243.873 11.0112 253.312 19 253L18 255L19 255L19 252L34 256L34 255L22 252L22 251L26 252C25.0751 237.603 31.781 222.35 40.1559 211C43.4713 206.507 51.1874 201.406 52.5532 196C53.9105 190.627 45.0349 178.317 43.9236 172C41.3174 157.186 43 141.016 43 126C43 119.179 44.027 111.299 41 105z"/>
<path style="fill:#af3ca4; stroke:none;" d="M255 113L256 114L255 113z"/>
<path style="fill:#fed3a5; stroke:none;" d="M68 185L69 186L68 185z"/>
<path style="fill:#f55750; stroke:none;" d="M69 187L70 188L69 187M70 188L71 189L70 188M71 189L72 190L71 189M72 190L73 191L72 190M54 196L58 200L54 196z"/>
<path style="fill:#af3ca4; stroke:none;" d="M0 226L1 227L0 226M255 226L256 227L255 226z"/>
<path style="fill:#5251b7; stroke:none;" d="M0 227L1 233L2 233L0 227M255 227L253 235L254 235L255 227z"/>
<path style="fill:#af3ca4; stroke:none;" d="M254 229L255 230L254 229z"/>
<path style="fill:#f55750; stroke:none;" d="M255 231L256 232L255 231z"/>
<path style="fill:#af3ca4; stroke:none;" d="M253 232L254 233L253 232M255 232L256 233L255 232z"/>
<path style="fill:#5251b7; stroke:none;" d="M2 233L2 238L4 237L3 240L7 243L5 242L14 251L13 249L14 249L16 253L19 251L2 233M0 234L1 235L0 234M255 234L256 235L255 234M1 235L0 256L22 256L21 254L22 254L29 256L29 255L19 252L19 253L21 254C10.6796 253.491 4.62866 243.458 1 235M252 235L250 240L253 240L253 242L250 242C248.983 246.448 246.448 248.983 242 250L236 254L236 255L256 256L255 235L254 235L254 240L253 240L252 235z"/>
<path style="fill:#af3ca4; stroke:none;" d="M0 236L1 237L0 236M251 236L252 237L251 236M255 236L256 237L255 236z"/>
<path style="fill:#5251b7; stroke:none;" d="M253 237L254 238L253 237z"/>
<path style="fill:#af3ca4; stroke:none;" d="M1 238L2 239L1 238M252 238L253 239L252 238M254 238L255 239L254 238z"/>
<path style="fill:#f55750; stroke:none;" d="M4 239L5 240L4 239z"/>
<path style="fill:#af3ca4; stroke:none;" d="M253 239L254 240L253 239z"/>
<path style="fill:#f55750; stroke:none;" d="M5 240L6 241L5 240z"/>
<path style="fill:#5251b7; stroke:none;" d="M249 240L235 252L235 253L238 254L237 252L240 253C241.237 247.627 251.326 247.532 249 240M251 240L252 241L251 240z"/>
<path style="fill:#fed3a5; stroke:none;" d="M4 241L5 242L4 241z"/>
<path style="fill:#af3ca4; stroke:none;" d="M5 241L6 242L5 241z"/>
<path style="fill:#fed3a5; stroke:none;" d="M6 241L7 242L6 241z"/>
<path style="fill:#af3ca4; stroke:none;" d="M250 241L250 242L253 242L253 241L250 241z"/>
<path style="fill:#fed3a5; stroke:none;" d="M251 241L252 242L251 241z"/>
<path style="fill:#f55750; stroke:none;" d="M6 242L7 243L6 242M7 243L13 249L7 243z"/>
<path style="fill:#af3ca4; stroke:none;" d="M246 243L247 244L246 243z"/>
<path style="fill:#f55750; stroke:none;" d="M248 243L243 249L248 243z"/>
<path style="fill:#af3ca4; stroke:none;" d="M5 244L6 245L5 244M245 244L246 245L245 244M250 244L251 245L250 244M244 245L245 246L244 245M249 245L250 246L249 245M243 246L244 247L243 246M248 246L249 247L248 246M246 248L247 249L246 248z"/>
<path style="fill:#f55750; stroke:none;" d="M13 249L14 250L13 249z"/>
<path style="fill:#fed3a5; stroke:none;" d="M14 249L15 250L14 249z"/>
<path style="fill:#af3ca4; stroke:none;" d="M245 249L246 250L245 249M11 250L12 251L11 250M14 250L15 251L14 250z"/>
<path style="fill:#f55750; stroke:none;" d="M15 250L16 251L15 250z"/>
<path style="fill:#fed3a5; stroke:none;" d="M20 250L21 251L20 250z"/>
<path style="fill:#af3ca4; stroke:none;" d="M241 250L241 253L242 253L241 250M244 250L245 251L244 250z"/>
<path style="fill:#fed3a5; stroke:none;" d="M14 251L15 252L14 251z"/>
<path style="fill:#f55750; stroke:none;" d="M16 251L17 252L16 251z"/>
<path style="fill:#5251b7; stroke:none;" d="M240 251L241 252L240 251z"/>
<path style="fill:#fed3a5; stroke:none;" d="M241 251L242 252L241 251z"/>
<path style="fill:#f55750; stroke:none;" d="M237 252L238 253L237 252z"/>
<path style="fill:#af3ca4; stroke:none;" d="M238 252L239 253L238 252z"/>
<path style="fill:#fed3a5; stroke:none;" d="M17 253L18 254L17 253z"/>
<path style="fill:#5251b7; stroke:none;" d="M18 253L19 254L18 253z"/>
<path style="fill:#fed3a5; stroke:none;" d="M20 253L21 254L20 253z"/>
<path style="fill:#af3ca4; stroke:none;" d="M232 253L233 254L232 253z"/>
<path style="fill:#5251b7; stroke:none;" d="M233.667 253.333L234.333 253.667L233.667 253.333z"/>
<path style="fill:#af3ca4; stroke:none;" d="M17 254L18 255L17 254z"/>
<path style="fill:#f55750; stroke:none;" d="M21 254L21 255L25 256L25 255L21 254z"/>
<path style="fill:#fed3a5; stroke:none;" d="M22 254L23 255L22 254z"/>
<path style="fill:#5251b7; stroke:none;" d="M227 255L227 256L233 255L227 255z"/>
<path style="fill:#af3ca4; stroke:none;" d="M235 254L236 255L235 254M238 254L239 255L238 254M19 255L20 256L19 255z"/>
<path style="fill:#f55750; stroke:none;" d="M20 255L21 256L20 255z"/>
<path style="fill:#af3ca4; stroke:none;" d="M226 255L227 256L226 255z"/>
<path style="fill:#5251b7; stroke:none;" d="M234 255L235 256L234 255z"/>
<path style="fill:#af3ca4; stroke:none;" d="M236 255L237 256L236 255z"/>
</svg>
